<?xml version="1.0" encoding="UTF-8"?>
<svg id="Layer_2" data-name="Layer 2" xmlns="http://www.w3.org/2000/svg" viewBox="0 0 183.94 46.41">
  <defs>
    <style>
      .cls-1 {
        fill: #2bb673;
      }
    </style>
  </defs>
  <g id="Layer_1-2" data-name="Layer 1">
    <g>
      <g>
        <path class="cls-1" d="M34.92,26.37c-.51,1.73-1.29,3.37-2.32,4.88-.33.49-.97,1.41-1.53.69-.53-.81-.72-1.88-1.06-2.79-.3-.92-.71-1.8-.67-2.73.01-.63.21-1.23.39-1.83,1.13-3.48.47-7.44-1.6-10.45-3.56-5.4-11-6.99-16.55-3.72-3.3,1.92-5.82,5.52-6.08,9.39-.08,1.65.02,3.48.57,5.02,2.04,4.94,6.41,9.24,12.74,8.6,1.22-.09,2.33-.3,3.5-.74.58-.2,1.36-.62,1.87-.11.43.51.48,1.31.64,1.95.16.95.44,1.91.02,2.65-.51.82-1.61.97-2.48,1.23-2.48.61-5.06.72-7.58.28C1,36.25-4.79,19.62,4.59,9.19c13.02-14.1,35.58-1.2,30.34,17.14v.04Z"/>
        <path class="cls-1" d="M46.72,8.66l-2.69-.59c-.89-.19-1.45-1.07-1.26-1.96l1.05-4.81c.19-.89,1.07-1.45,1.96-1.26l2.69.59c.89.19,1.45,1.07,1.26,1.96l-1.05,4.81c-.19.89-1.07,1.45-1.96,1.26Z"/>
        <path class="cls-1" d="M47.04,13c-.48,6.67-4.16,25.55-15.26,32.78-1.07.61-1.94.78-2.59.51-.78-.33-1.37-1.33-1.81-3.06-.41-1.57-.65-3.27-.88-4.92l-.09-.63c-.28-2.25-.64-4.47-1.26-6.3-.02-.06-.04-.12-.06-.17-.65-1.84-1.57-3.26-2.96-3.89-.54-.25-1.14-.37-1.8-.37-1.71,0-3.83.85-6.5,2.6.25-.31.54-.64.85-.96.95-1.01,1.88-1.86,2.82-2.6,2.26-1.74,4.25-2.61,6.07-2.65h.03c3.03,0,4.23,2.82,5.3,5.99.09.24.19.58.31.97.55,1.83,1.31,4.33,2.83,4.78.63.18,1.28,0,1.93-.55h.02c.67-.62,1.18-1.55,1.52-2.2,2.32-4.68,4.05-11.65,5.3-16.74.33-1.33.64-2.59.92-3.62.11-.28.36-.51.75-.67,1.18-.47,3.15-.2,3.93.18h.03c.51.26.66.66.6,1.53Z"/>
        <path class="cls-1" d="M29.19,46.29c-.78-.33-1.37-1.33-1.81-3.06-.41-1.57-.65-3.27-.88-4.92l-.09-.63c-.28-2.25-.64-4.47-1.26-6.3-.02-.06-.04-.12-.06-.17-.65-1.84-1.57-3.26-2.96-3.89-.54-.25-1.14-.37-1.8-.37-1.71,0-3.83.85-6.5,2.6.25-.31.54-.64.85-.96.95-1.01,1.88-1.86,2.82-2.6,2.26-1.74,4.25-2.61,6.07-2.65h.03c3.03,0,4.23,2.82,5.3,5.99.09.24.19.58.31.97.55,1.83,1.31,4.33,2.83,4.78.63.18,1.28,0,1.93-.55h.02c.67-.62,1.18-1.55,1.52-2.2,2.32-4.68,4.05-11.65,5.3-16.74.33-1.33.64-2.59.92-3.62.11-.28.36-.51.75-.67,1.18-.47,3.15-.2,3.93.18h.03c.51.26.66.66.6,1.53-.48,6.67-4.16,25.55-15.26,32.78-1.07.61-1.94.78-2.59.51Z"/>
      </g>
      <g>
        <path class="cls-1" d="M63.39,39.38c-.87,0-1.74-.09-2.6-.26-1.05-.19-2.08-.54-3.06-1.02-.98-.48-1.9-1.09-2.73-1.81-.81-.7-1.54-1.5-2.17-2.38-.64-.89-1.16-1.86-1.54-2.86-.56-1.52-.84-3.04-.86-4.54-.02-1.5.21-2.94.66-4.28.45-1.33,1.11-2.58,1.96-3.71.86-1.14,1.89-2.12,3.08-2.91,1.17-.78,2.47-1.39,3.87-1.8,1.43-.42,2.96-.58,4.56-.49,1.22.06,2.41.33,3.51.78,1,.41,1.97.92,2.88,1.51l.07.05c1.03.72,1.93,1.56,2.67,2.51.71.9,1.32,1.9,1.83,2.98.5,1.1.81,2.23.92,3.39.1,1.01.12,2.03.07,3.05,0,.71-.11,1.4-.3,2.06-.16.54-.34,1.06-.55,1.56-.57,1.5-1.39,2.83-2.44,3.96-1.04,1.12-2.25,2.03-3.58,2.72-1.32.68-2.76,1.13-4.27,1.36-.66.1-1.31.15-1.97.15ZM63.46,18.73c-.35,0-.69.03-1.02.08-1.38.22-2.54.73-3.54,1.55-1.04.85-1.8,1.83-2.32,2.99-.51,1.15-.72,2.35-.64,3.69.08,1.28.51,2.46,1.33,3.62.6.89,1.3,1.56,2.17,2.09.89.55,1.82.89,2.85,1.05h.07c.81.17,1.61.16,2.46,0,.89-.17,1.7-.46,2.42-.86.95-.53,1.69-1.15,2.27-1.9.59-.77,1-1.57,1.25-2.44.25-.87.34-1.78.27-2.7-.07-.92-.3-1.81-.68-2.65-.38-.83-.92-1.61-1.6-2.31-.67-.68-1.5-1.24-2.47-1.67-.52-.21-1.16-.38-1.85-.47-.32-.04-.64-.06-.96-.06Z"/>
        <polygon class="cls-1" points="100.05 38.88 93.19 38.88 85.37 28.5 85.37 38.88 79.98 38.88 79.98 2.14 85.37 2.14 85.37 23.26 93.47 13.87 100.71 13.87 90.34 25.97 100.05 38.88"/>
        <path class="cls-1" d="M112.98,39.38c-.87,0-1.74-.09-2.6-.26-1.05-.19-2.08-.54-3.06-1.02-.98-.48-1.9-1.09-2.73-1.81-.81-.7-1.54-1.5-2.17-2.38-.64-.89-1.16-1.86-1.54-2.86-.56-1.52-.84-3.04-.86-4.54-.02-1.49.21-2.94.66-4.28.45-1.33,1.11-2.58,1.96-3.71.86-1.14,1.89-2.12,3.08-2.91,1.17-.78,2.47-1.39,3.87-1.8,1.43-.42,2.96-.58,4.56-.49,1.22.06,2.4.33,3.51.78,1,.41,1.97.92,2.88,1.51l.07.05c1.03.72,1.93,1.56,2.67,2.51.71.91,1.32,1.91,1.83,2.98.5,1.1.81,2.23.92,3.39.1,1.02.12,2.04.07,3.06,0,.71-.11,1.4-.31,2.07-.16.53-.34,1.06-.55,1.56-.57,1.49-1.39,2.83-2.44,3.96-1.04,1.12-2.25,2.03-3.58,2.72-1.32.68-2.76,1.13-4.27,1.36-.66.1-1.31.15-1.97.15ZM113.05,18.73c-.35,0-.69.03-1.03.08-1.37.22-2.54.73-3.54,1.55-1.04.85-1.8,1.83-2.32,2.99-.51,1.15-.72,2.35-.64,3.69.08,1.28.51,2.46,1.33,3.62.6.89,1.3,1.56,2.17,2.09.89.55,1.82.89,2.85,1.05h.07c.81.17,1.61.16,2.46,0,.88-.17,1.7-.46,2.42-.86.94-.52,1.7-1.16,2.27-1.9.59-.77,1-1.57,1.25-2.44.25-.88.34-1.78.27-2.7-.07-.92-.3-1.81-.68-2.65-.38-.83-.92-1.61-1.61-2.31-.68-.69-1.49-1.24-2.47-1.67-.52-.22-1.16-.38-1.85-.47-.32-.04-.64-.06-.96-.06Z"/>
        <path class="cls-1" d="M141.3,39.29c-.68,0-1.35-.05-2.02-.16h-.03c-1.58-.28-3.04-.82-4.32-1.59-1.23-.73-2.37-1.65-3.38-2.73-.7-.77-1.28-1.61-1.73-2.51-.41-.82-.76-1.68-1.03-2.55-.48-1.59-.63-3.19-.46-4.77.17-1.53.6-3.01,1.28-4.39.67-1.36,1.56-2.6,2.65-3.69s2.36-1.98,3.75-2.63c1.04-.5,2.17-.84,3.32-.99,1.04-.13,2.11-.17,3.17-.11,1.75.06,3.46.57,5.04,1.51.45.27.89.55,1.3.85V1.99h5.45l.02,2.23c.08,10.72.08,21.64,0,32.44l-.02,2.23h-5.45v-1.92c-.82.55-1.69,1.01-2.6,1.37-1.09.43-2.25.72-3.43.86-.51.06-1.02.09-1.53.09ZM141.41,18.62c-1.03,0-1.99.19-2.91.59-1.07.46-1.95,1.07-2.68,1.86-.73.79-1.26,1.71-1.63,2.8-.36,1.08-.45,2.19-.29,3.41v.07c.06.54.2,1.08.42,1.62.23.57.52,1.1.85,1.57.62.86,1.36,1.55,2.24,2.1.87.54,1.8.88,2.85,1.04h.04c.8.14,1.58.14,2.37,0,.81-.15,1.58-.42,2.3-.81.72-.39,1.37-.89,1.94-1.49.55-.58,1-1.24,1.33-1.95.14-.33.31-.7.5-1.1.04-.09.05-.13.05-.13v-3.98h0s0-.04-.05-.13c-.19-.38-.35-.74-.49-1.07-.3-.61-.67-1.18-1.12-1.7-.45-.53-.97-1-1.53-1.39-.54-.38-1.14-.68-1.78-.9-.64-.22-1.31-.35-1.99-.39-.14,0-.28-.01-.42-.01Z"/>
        <path class="cls-1" d="M173.13,38.88h-3.12c-.38,0-.77-.04-1.2-.11h-.02c-1.58-.28-3.04-.81-4.32-1.58-1.23-.73-2.37-1.65-3.38-2.73l-.07-.07c-1.19-1.38-2.04-2.92-2.53-4.59-.47-1.59-.67-3.26-.61-4.97.07-1.21.32-2.38.77-3.52.42-1.09.95-2.09,1.56-2.98,1.3-1.77,2.8-3.09,4.49-3.97,1.66-.86,3.41-1.36,5.2-1.49,1.78-.12,3.54.11,5.24.7,1.69.58,3.22,1.47,4.55,2.65,1.35,1.19,2.42,2.66,3.19,4.38.79,1.75,1.14,3.72,1.05,5.84l-.09,2.15h-14.58v-5.58h8.62c-.67-1.61-1.81-2.89-3.46-3.87-.66-.4-1.35-.64-2.1-.75-.84-.12-1.68-.13-2.51-.03-.9.1-1.69.36-2.47.79-.81.45-1.51,1.02-2.08,1.67-.86.96-1.4,1.96-1.67,3.06-.29,1.15-.32,2.24-.11,3.33.21,1.09.65,2.09,1.35,3.05.7.97,1.59,1.74,2.7,2.36.45.24.96.42,1.52.54.73.15,1.46.27,2.15.36l1.94.27v5.1Z"/>
      </g>
    </g>
  </g>
</svg>